<svg id="Layer_1" data-name="Layer 1" xmlns="http://www.w3.org/2000/svg" xmlns:xlink="http://www.w3.org/1999/xlink" viewBox="0 0 2048 2048"><defs><style>.cls-1{fill:url(#linear-gradient);}.cls-2{fill:#fff;}</style><linearGradient id="linear-gradient" x1="2254.36" y1="1482.57" x2="221.07" y2="725.26" gradientUnits="userSpaceOnUse"><stop offset="0" stop-color="#5a1e30" stop-opacity="0.9"/><stop offset="1" stop-color="#201e22" stop-opacity="0.9"/></linearGradient></defs><title>bg-mask</title><rect class="cls-1" x="0.5" y="0.5" width="2048" height="2048"/><polygon class="cls-2" points="330.79 1233.75 247.49 1233.75 205.84 1161.62 247.49 1089.5 330.79 1089.5 372.43 1161.62 330.79 1233.75"/><polygon class="cls-2" points="473.66 897.41 549.16 766.66 700.16 766.66 775.66 897.41 700.16 1028.16 549.16 1028.16 473.66 897.41"/><polygon class="cls-2" points="756.02 1615.45 643.7 1615.45 587.54 1518.19 643.7 1420.94 756.02 1420.94 812.18 1518.19 756.02 1615.45"/><polygon class="cls-2" points="1511 1612.5 1209 1612.5 1058 1351 1209 1089.5 1511 1089.5 1662 1351 1511 1612.5"/></svg>