<svg xmlns="http://www.w3.org/2000/svg" xmlns:xlink="http://www.w3.org/1999/xlink" viewBox="0 0 1968 1128">
  <defs>
    <style>
      .cls-1 {
        fill: url(#linear-gradient);
      }

      .cls-2, .cls-3 {
        fill: none;
        stroke-miterlimit: 10;
      }

      .cls-3 {
        stroke-linejoin: round;
      }

      .cls-4, .cls-5, .cls-6 {
        stroke: none;
      }

      .cls-5 {
        fill: #d9bdad;
      }

      .cls-6 {
        fill: #8a837d;
      }

      .cls-7 {
        filter: url(#door);
      }
    </style>
    <linearGradient id="linear-gradient" x1="0.5" x2="0" y2="1" gradientUnits="objectBoundingBox">
      <stop offset="0" stop-color="#4e5457"/>
      <stop offset="0.291" stop-color="#4e5457"/>
      <stop offset="1" stop-color="#201e22"/>
    </linearGradient>
    <filter id="door" x="0" y="0" width="1968" height="1128" filterUnits="userSpaceOnUse">
      <feOffset dy="16" input="SourceAlpha"/>
      <feGaussianBlur stdDeviation="8" result="blur"/>
      <feFlood flood-color="#201e22" flood-opacity="0.8"/>
      <feComposite operator="in" in2="blur"/>
      <feComposite in="SourceGraphic"/>
    </filter>
  </defs>
  <g id="door-2" data-name="door" transform="translate(1146.5 583.5)">
    <g class="cls-7" transform="matrix(1, 0, 0, 1, -1146.5, -583.5)">
      <path id="door-3" data-name="door" class="cls-1" d="M-2622.5,504.5v-360h1193.923a12.2,12.2,0,0,0,9.242-4.151l33.157-39.7a12.215,12.215,0,0,1,9.242-4.151h69.185a12.2,12.2,0,0,1,9.243,4.151l33.235,39.7a12.236,12.236,0,0,0,9.212,4.151H-702.5v360Zm1382.44-424a12.231,12.231,0,0,1-9.212-4.15l-33.236-39.7a12.2,12.2,0,0,0-9.242-4.151h-69.185a12.213,12.213,0,0,0-9.242,4.151l-33.157,39.7a12.2,12.2,0,0,1-9.242,4.15H-2622.5v-656h1920v656Z" transform="translate(2646.5 583.5)"/>
    </g>
    <g id="door__line--bottom" class="cls-2" transform="translate(18 64)">
      <path class="cls-4" d="M779.5,80.5H225.939a12.233,12.233,0,0,1-9.213-4.151l-33.236-39.7a12.2,12.2,0,0,0-9.242-4.151H105.064a12.216,12.216,0,0,0-9.242,4.151l-33.156,39.7A12.2,12.2,0,0,1,53.423,80.5H-1140.5v360h1920Z"/>
      <path class="cls-5" d="M 105.0640563964844 32.50009155273438 C 101.4861755371094 32.50009155273438 98.08737182617188 34.02459716796875 95.8216552734375 36.65057373046875 L 62.66525268554688 76.349365234375 C 60.3992919921875 78.97531127929688 57.01046752929688 80.50009155273438 53.4228515625 80.50009155273438 L -1140.5 80.50009155273438 L -1140.5 440.4996032714844 L 779.5 440.4996032714844 L 779.5 80.50009155273438 L 225.9395141601562 80.50009155273438 C 222.3716430664062 80.49057006835938 218.9928588867188 78.96578979492188 216.7269287109375 76.349365234375 L 183.491455078125 36.65057373046875 C 181.2254638671875 34.02459716796875 177.836669921875 32.50009155273438 174.2490234375 32.50009155273438 L 105.0640563964844 32.50009155273438 M 105.0640563964844 31.50009155273438 L 174.2490234375 31.50009155273438 C 178.1376342773438 31.50009155273438 181.7824096679688 33.13912963867188 184.2485961914062 35.99722290039062 L 184.2533569335938 36.0029296875 L 184.2581176757812 36.0086669921875 L 217.4828491210938 75.69464111328125 L 217.4828491210938 75.69461059570312 C 219.5697631835938 78.1043701171875 222.65283203125 79.49127197265625 225.942138671875 79.50009155273438 L 779.5 79.50009155273438 L 780.5 79.50009155273438 L 780.5 80.50009155273438 L 780.5 440.4996032714844 L 780.5 441.4996032714844 L 779.5 441.4996032714844 L -1140.5 441.4996032714844 L -1141.5 441.4996032714844 L -1141.5 440.4996032714844 L -1141.5 80.50009155273438 L -1141.5 79.50009155273438 L -1140.5 79.50009155273438 L 53.4228515625 79.50009155273438 C 56.72726440429688 79.50009155273438 59.818359375 78.1153564453125 61.90426635742188 75.70046997070312 L 95.05404663085938 36.00961303710938 L 95.05929565429688 36.00341796875 L 95.06451416015625 35.99722290039062 C 96.27072143554688 34.59912109375 97.81881713867188 33.45150756835938 99.54119873046875 32.67840576171875 C 101.2583312988281 31.907470703125 103.1678466796875 31.50009155273438 105.0640563964844 31.50009155273438 Z"/>
    </g>
    <g id="door__line--top" class="cls-3" transform="translate(18)">
      <path class="cls-4" d="M779.5,80.5H241.939a12.233,12.233,0,0,1-9.213-4.151l-33.236-39.7a12.2,12.2,0,0,0-9.242-4.151H121.064a12.216,12.216,0,0,0-9.242,4.151l-33.156,39.7A12.2,12.2,0,0,1,69.423,80.5H-1140.5v-656h1920Z"/>
      <path class="cls-6" d="M 779.5 80.50008392333984 L 779.5 -575.5003662109375 L -1140.5 -575.5003662109375 L -1140.5 80.50008392333984 L 69.42285919189453 80.50008392333984 C 73.01047515869141 80.50008392333984 76.39928436279297 78.97532653808594 78.66523742675781 76.34937286376953 L 111.821662902832 36.65056228637695 C 114.0876159667969 34.02484893798828 117.4861907958984 32.50008392333984 121.0640487670898 32.50008392333984 L 190.2490539550781 32.50008392333984 C 193.836669921875 32.50008392333984 197.2254791259766 34.02484893798828 199.4914245605469 36.65056228637695 L 232.7268981933594 76.34937286376953 C 234.9928588867188 78.96579742431641 238.3716735839844 80.49056243896484 241.9395294189453 80.50008392333984 L 779.5 80.50008392333984 M 779.5 81.50008392333984 L 241.9395294189453 81.50008392333984 C 238.0690460205078 81.48984527587891 234.4366607666016 79.85103607177734 231.970947265625 77.00413513183594 C 231.9673767089844 76.99984741210938 231.9638061523438 76.99555969238281 231.9602355957031 76.99127960205078 L 198.7343139648438 37.30387115478516 L 198.7342834472656 37.30389404296875 C 196.6481018066406 34.88651275634766 193.5554809570312 33.50008392333984 190.2490539550781 33.50008392333984 L 121.0640487670898 33.50008392333984 C 119.4483337402344 33.50008392333984 117.821907043457 33.84698867797852 116.3604736328125 34.5029411315918 C 114.9048767089844 35.15642929077148 113.598747253418 36.12335586547852 112.5826187133789 37.29949951171875 L 79.43285369873047 76.99032592773438 C 79.42928314208984 76.99460601806641 79.42594909667969 76.9986572265625 79.42237854003906 77.00270080566406 C 76.95595550537109 79.86080169677734 73.31143188476562 81.50008392333984 69.42285919189453 81.50008392333984 L -1140.5 81.50008392333984 C -1141.052368164062 81.50008392333984 -1141.5 81.05246734619141 -1141.5 80.50008392333984 L -1141.5 -575.5003662109375 C -1141.5 -576.0527954101562 -1141.052368164062 -576.5003662109375 -1140.5 -576.5003662109375 L 779.5 -576.5003662109375 C 780.0523681640625 -576.5003662109375 780.5 -576.0527954101562 780.5 -575.5003662109375 L 780.5 80.50008392333984 C 780.5 81.05246734619141 780.0523681640625 81.50008392333984 779.5 81.50008392333984 Z"/>
    </g>
  </g>
</svg>
