<svg xmlns="http://www.w3.org/2000/svg" xmlns:xlink="http://www.w3.org/1999/xlink" viewBox="0 0 1024 768">
  <defs>
    <style>
      .cls-1 {
        clip-path: url(#clip-Rentalcars-BPD_increase);
      }

      .cls-2 {
        fill: #beab43;
      }

      .cls-3 {
        fill: #201e22;
      }

      .cls-4 {
        fill: #fff;
      }
    </style>
    <clipPath id="clip-Rentalcars-BPD_increase">
      <rect width="1024" height="768"/>
    </clipPath>
  </defs>
  <g id="Rentalcars-BPD_increase" class="cls-1">
    <rect class="cls-4" width="1024" height="768"/>
    <rect id="Rectangle_4" data-name="Rectangle 4" class="cls-2" width="1024" height="768"/>
    <path id="Path_69" data-name="Path 69" class="cls-3" d="M70.7-39.456H43.2v26.064H36.144V-39.456H8.64v-7.056H36v-25.92h7.2v25.92H70.7ZM116.64,0h-9.5V-82.368a48.589,48.589,0,0,1,.576-7.92l-25.2,8.064-1.3-6.768,25.92-10.368h9.5Zm34.128-88.992q7.488-12.1,25.632-12.1t25.632,12.024Q209.52-77.04,209.52-49.68T202.032-10.3Q194.544,1.728,176.4,1.728T150.84-10.3q-7.416-12.024-7.416-39.384T150.768-88.992Zm44.064,6.048Q189.648-92.88,176.4-92.88t-18.5,9.936q-5.256,9.936-5.256,33.264T157.9-16.416q5.256,9.936,18.5,9.936t18.5-9.936q5.256-9.936,5.256-33.264T194.832-82.944Zm34.272-8.5-1.008-7.2a169.3,169.3,0,0,1,27.072-2.448q16.7,0,23.544,5.04t6.84,17.856q0,22.032-15.12,25.056v.576q9.5,1.584,13.464,7.848t4.248,17.064q.288,15.264-6.768,22.32T257.328,1.728A241.392,241.392,0,0,1,226.512-.72l.864-7.488q16.848,1.584,27.936,1.584,12.672,0,18.072-4.968t5.4-16.92q0-9.648-4.464-14.832t-16.992-5.328H238.9v-7.344l18.432-.144a28.384,28.384,0,0,0,10.3-1.872,11.693,11.693,0,0,0,5.9-4.9A20.255,20.255,0,0,0,275.9-69.12a39.022,39.022,0,0,0,.576-7.2q-.144-9.936-4.824-13.176t-17.5-3.24A232.553,232.553,0,0,0,229.1-91.44Zm92.7,71.28v.224q4.2.392,5.964,2.94t1.764,7.364q0,5.824-2.716,7.952T317.328.448Q308.536.448,303.72,0V-38.64q4.2-.448,11.928-.448,7.168,0,9.94,2.1t2.772,7.98q0,4.2-1.568,6.356A6.6,6.6,0,0,1,321.808-20.16Zm-14.5-1.288h9.128q4.76-.056,6.552-1.512t1.792-5.656q0-4.368-1.988-5.852t-7.252-1.484q-6.16,0-8.232.056Zm0,2.856V-2.8q4.7.112,9.576.112,5.1,0,7-1.512t1.9-5.936q0-4.872-2.016-6.608t-7.336-1.848ZM338.272,0V-38.64q4.648-.448,12.936-.448,6.776,0,9.38,2.492t2.6,9.324q0,6.832-2.548,9.324T351.6-15.456q-4.872,0-9.688-.448V0Zm3.64-18.648h9.24q4.7-.056,6.5-1.82t1.792-6.8q0-5.1-1.792-6.888t-6.5-1.792q-4.76,0-9.24.112ZM371.144,0V-38.64q6.944-.5,13.384-.5,8.176,0,11.452,4.4t3.276,15.428q0,11.032-3.276,15.428T384.528.5Q378.2.5,371.144,0Zm3.64-35.784V-2.856q5.6.112,9.744.112,6.1,0,8.484-3.64t2.38-12.936q0-9.3-2.38-12.964t-8.484-3.668Q383.52-35.952,374.784-35.784Z" transform="translate(483 501)"/>
  </g>
</svg>
